<svg xmlns="http://www.w3.org/2000/svg" width="2016.886" height="464.756" viewBox="0 0 2016.886 464.756">
  <g id="Group_6" data-name="Group 6" transform="translate(169.443 -3937.244)">
    <g id="Group_5" data-name="Group 5" transform="translate(-15.832 -23.486)">
      <g id="Group_4" data-name="Group 4" transform="translate(-1.195 -107.787)">
        <g id="Group_3" data-name="Group 3" transform="translate(3 20.5)">
          <path id="Path_8" data-name="Path 8" d="M1867.776,3418.563H-3.708l1871.483-163.757Z" transform="matrix(1, -0.017, 0.017, 1, -65.683, 999.751)" fill="#bd9b60"/>
          <g id="worldwide" transform="translate(154 4284.05)">
            <g id="Group_2" data-name="Group 2" transform="translate(0 0.05)">
              <path id="Path_5" data-name="Path 5" d="M112.717.05A112.653,112.653,0,0,0,9.14,68.363l-1.4.466.544,1.633A112.645,112.645,0,1,0,112.717.05ZM201.081,169.5,195.3,163.72V150.254a3.751,3.751,0,0,0-.376-1.679l-14.645-29.249V105.193a3.755,3.755,0,0,0-1.671-3.124l-11.265-7.51a3.756,3.756,0,0,0-3-.518l-13.8,3.447-23.173-9.944-3.188-22.335,8.836-8.832h18.967l6.384,9.594a3.755,3.755,0,0,0,2.508,1.618L183.4,71.345a3.723,3.723,0,0,0,1.8-.143l20.751-6.917A104.767,104.767,0,0,1,201.081,169.5ZM185.593,37.053l-6.106,4.071-17.022-3.406-11.044-3.676a3.688,3.688,0,0,0-2.1-.083l-13.962,3.488-6.121-2.039,4.536-9.072h12.7a3.754,3.754,0,0,0,1.679-.394l12.993-6.5A105.529,105.529,0,0,1,185.593,37.053ZM71.554,15.945l9.012,6.008a3.75,3.75,0,0,0,1.468.578l18.2,3.034-1.776,5.313-9.482,3.166a3.756,3.756,0,0,0-2.032,1.626L76.157,53.643,58.835,64.037,33.3,67.683A3.755,3.755,0,0,0,30.071,71.4V82.662a3.755,3.755,0,0,0,1.1,2.655l6.41,6.41v6.451L21.96,87.762l-5.666-17A105.748,105.748,0,0,1,71.554,15.945ZM60.863,139.064l-16.973-3.4-6.309-12.583v-8.825l13.992-13.992,5.178,10.36a3.756,3.756,0,0,0,3.361,2.077h24.16l10.173,16.954a3.755,3.755,0,0,0,3.218,1.821H108.1l-2.629,13.169L91.257,158.865a3.757,3.757,0,0,0-1.1,2.655v9.388L76.634,181.046a3.756,3.756,0,0,0-1.5,3v13.563l-4.671-1.547-6.594-16.492v-36.83A3.755,3.755,0,0,0,60.863,139.064ZM49.575,196.79A105.116,105.116,0,0,1,12.125,82l3.12,9.358A3.753,3.753,0,0,0,16.722,93.3l18.719,12.478-4.27,4.273a3.755,3.755,0,0,0-1.1,2.655v11.265a3.754,3.754,0,0,0,.394,1.679l7.51,15.02a3.757,3.757,0,0,0,2.629,2l15.771,3.151V180.3a3.756,3.756,0,0,0,.267,1.393l7.51,18.776a3.756,3.756,0,0,0,2.3,2.167l11.265,3.755a3.69,3.69,0,0,0,1.168.2,3.755,3.755,0,0,0,3.755-3.755v-16.9l13.518-10.139a3.756,3.756,0,0,0,1.5-3v-9.711l13.92-13.92a3.758,3.758,0,0,0,1.025-1.919l3.755-18.776a3.755,3.755,0,0,0-3.68-4.491h-12.9L89.616,107.014a3.755,3.755,0,0,0-3.218-1.821H62.432L55.981,92.249a3.755,3.755,0,0,0-2.76-2.028,3.68,3.68,0,0,0-3.256,1.051l-4.874,4.855V90.173a3.755,3.755,0,0,0-1.1-2.655l-6.41-6.41V74.653L60.645,71.36a3.773,3.773,0,0,0,1.4-.5L80.821,59.595a3.753,3.753,0,0,0,1.284-1.284L92.657,40.725l9.947-3.32a3.717,3.717,0,0,0,2.373-2.373l3.755-11.265a3.756,3.756,0,0,0-2.944-4.882L84.054,15.262l-3.819-2.546A104.854,104.854,0,0,1,152.454,15.4l-6.861,3.425H131.459a3.755,3.755,0,0,0-3.38,2.077l-7.51,15.02a3.756,3.756,0,0,0,2.174,5.238l11.265,3.755a3.688,3.688,0,0,0,2.1.083l13.962-3.488,10.229,3.406a2.761,2.761,0,0,0,.451.12l18.776,3.755a3.729,3.729,0,0,0,2.82-.556l8.547-5.7a105.935,105.935,0,0,1,11.3,15.092l-18.475,6.158-20-3.335L157.1,50.537a3.755,3.755,0,0,0-3.105-1.671H131.459a3.755,3.755,0,0,0-2.655,1.1L117.539,61.232a3.755,3.755,0,0,0-1.063,3.188l3.755,26.286a3.755,3.755,0,0,0,2.253,2.918l26.286,11.265a3.711,3.711,0,0,0,2.388.192l13.41-3.353,8.2,5.475v13.011a3.751,3.751,0,0,0,.376,1.679l14.645,29.249v14.134a3.755,3.755,0,0,0,1.1,2.655l7.856,7.859A105.117,105.117,0,0,1,49.575,196.79Z" transform="translate(0 -0.05)" fill="#11103b"/>
            </g>
          </g>
          <path id="Path_7" data-name="Path 7" d="M2011.413,3387.231H-3.708l2015.12-132.424Z" transform="translate(-151.372 1038.995)" fill="#11103b"/>
          <g id="palm-tree-black-shape" transform="translate(1270.205 4048.017)">
            <path id="Path_20" data-name="Path 20" d="M14.932,76.594c-9.286,8.986-4.442,14.981,7.975,11.43,29.46-8.424,80.275-20.193,103.4-9.132,0,0-67.645,53.607-57.449,159.62,1.234,12.862,10.878,23.145,20.165,23.145s15.465-10.418,15.437-23.343c-.058-29.213,4.887-83.652,34.521-150.648,0,0,22.042,28.966,28.666,60.575,2.652,12.644,7.583,14.415,11.019,1.955,3.76-13.685,4.95-32.543-6.053-52.305,0,0,42.085,22.816,69.5,52.222,8.812,9.45,14.052,7.859,10.617-4.6C245.506,119.364,224.2,78.775,161.4,66.7c0,0,24.181-11.783,53.505-10.617,12.91.508,17.155-5.545,5.657-11.444-13.989-7.186-37.884-12-76.708-.837,0,0-18.707-45.613-79.147-43.745-12.91.4-13.472,6.736-1.863,12.392,20.048,9.77,47.752,25.516,53.229,40.125C116.081,52.574,53.788,38.986,14.932,76.594Z" transform="translate(0 0)" fill="#bd9b60"/>
          </g>
        </g>
      </g>
      <path id="Path_23" data-name="Path 23" d="M-153.611,4338.351v89.623H1862.866v-89.623Z" transform="translate(0 -2.488)" fill="#11103b"/>
    </g>
  </g>
</svg>
