<svg xmlns="http://www.w3.org/2000/svg" xmlns:xlink="http://www.w3.org/1999/xlink" width="135.5" height="49.5" viewBox="0 0 135.5 49.5">
  <defs>
    <filter id="Rectangle_5" x="0" y="0" width="20" height="7.5" filterUnits="userSpaceOnUse">
      <feOffset dy="2" input="SourceAlpha"/>
      <feGaussianBlur stdDeviation="0.5" result="blur"/>
      <feFlood flood-opacity="0.161"/>
      <feComposite operator="in" in2="blur"/>
      <feComposite in="SourceGraphic"/>
    </filter>
    <filter id="Rectangle_6" x="19" y="0" width="26" height="7.5" filterUnits="userSpaceOnUse">
      <feOffset dy="2" input="SourceAlpha"/>
      <feGaussianBlur stdDeviation="0.5" result="blur-2"/>
      <feFlood flood-opacity="0.161"/>
      <feComposite operator="in" in2="blur-2"/>
      <feComposite in="SourceGraphic"/>
    </filter>
    <filter id="Rectangle_8" x="35" y="6" width="15" height="7.5" filterUnits="userSpaceOnUse">
      <feOffset dy="2" input="SourceAlpha"/>
      <feGaussianBlur stdDeviation="0.5" result="blur-3"/>
      <feFlood flood-opacity="0.161"/>
      <feComposite operator="in" in2="blur-3"/>
      <feComposite in="SourceGraphic"/>
    </filter>
    <filter id="Rectangle_9" x="0" y="6" width="27" height="7.5" filterUnits="userSpaceOnUse">
      <feOffset dy="2" input="SourceAlpha"/>
      <feGaussianBlur stdDeviation="0.5" result="blur-4"/>
      <feFlood flood-opacity="0.161"/>
      <feComposite operator="in" in2="blur-4"/>
      <feComposite in="SourceGraphic"/>
    </filter>
    <filter id="Rectangle_10" x="26" y="6" width="10" height="7.5" filterUnits="userSpaceOnUse">
      <feOffset dy="2" input="SourceAlpha"/>
      <feGaussianBlur stdDeviation="0.5" result="blur-5"/>
      <feFlood flood-opacity="0.161"/>
      <feComposite operator="in" in2="blur-5"/>
      <feComposite in="SourceGraphic"/>
    </filter>
    <filter id="Rectangle_11" x="0" y="12" width="15" height="7.5" filterUnits="userSpaceOnUse">
      <feOffset dy="2" input="SourceAlpha"/>
      <feGaussianBlur stdDeviation="0.5" result="blur-6"/>
      <feFlood flood-opacity="0.161"/>
      <feComposite operator="in" in2="blur-6"/>
      <feComposite in="SourceGraphic"/>
    </filter>
    <filter id="Rectangle_12" x="14" y="12" width="14" height="7.5" filterUnits="userSpaceOnUse">
      <feOffset dy="2" input="SourceAlpha"/>
      <feGaussianBlur stdDeviation="0.5" result="blur-7"/>
      <feFlood flood-opacity="0.161"/>
      <feComposite operator="in" in2="blur-7"/>
      <feComposite in="SourceGraphic"/>
    </filter>
    <filter id="Rectangle_13" x="9" y="18" width="18" height="7.5" filterUnits="userSpaceOnUse">
      <feOffset dy="2" input="SourceAlpha"/>
      <feGaussianBlur stdDeviation="0.5" result="blur-8"/>
      <feFlood flood-opacity="0.161"/>
      <feComposite operator="in" in2="blur-8"/>
      <feComposite in="SourceGraphic"/>
    </filter>
    <filter id="Rectangle_14" x="0" y="18" width="10" height="7.5" filterUnits="userSpaceOnUse">
      <feOffset dy="2" input="SourceAlpha"/>
      <feGaussianBlur stdDeviation="0.5" result="blur-9"/>
      <feFlood flood-opacity="0.161"/>
      <feComposite operator="in" in2="blur-9"/>
      <feComposite in="SourceGraphic"/>
    </filter>
    <filter id="Rectangle_15" x="17" y="24" width="18" height="7.5" filterUnits="userSpaceOnUse">
      <feOffset dy="2" input="SourceAlpha"/>
      <feGaussianBlur stdDeviation="0.5" result="blur-10"/>
      <feFlood flood-opacity="0.161"/>
      <feComposite operator="in" in2="blur-10"/>
      <feComposite in="SourceGraphic"/>
    </filter>
    <filter id="Rectangle_16" x="0" y="24" width="18" height="7.5" filterUnits="userSpaceOnUse">
      <feOffset dy="2" input="SourceAlpha"/>
      <feGaussianBlur stdDeviation="0.5" result="blur-11"/>
      <feFlood flood-opacity="0.161"/>
      <feComposite operator="in" in2="blur-11"/>
      <feComposite in="SourceGraphic"/>
    </filter>
    <filter id="Rectangle_17" x="0" y="30" width="24" height="7.5" filterUnits="userSpaceOnUse">
      <feOffset dy="2" input="SourceAlpha"/>
      <feGaussianBlur stdDeviation="0.5" result="blur-12"/>
      <feFlood flood-opacity="0.161"/>
      <feComposite operator="in" in2="blur-12"/>
      <feComposite in="SourceGraphic"/>
    </filter>
    <filter id="Rectangle_18" x="0" y="36" width="20" height="7.5" filterUnits="userSpaceOnUse">
      <feOffset dy="2" input="SourceAlpha"/>
      <feGaussianBlur stdDeviation="0.5" result="blur-13"/>
      <feFlood flood-opacity="0.161"/>
      <feComposite operator="in" in2="blur-13"/>
      <feComposite in="SourceGraphic"/>
    </filter>
    <filter id="Rectangle_19" x="18" y="36" width="24" height="7.5" filterUnits="userSpaceOnUse">
      <feOffset dy="2" input="SourceAlpha"/>
      <feGaussianBlur stdDeviation="0.5" result="blur-14"/>
      <feFlood flood-opacity="0.161"/>
      <feComposite operator="in" in2="blur-14"/>
      <feComposite in="SourceGraphic"/>
    </filter>
    <filter id="Rectangle_20" x="23" y="30" width="14" height="7.5" filterUnits="userSpaceOnUse">
      <feOffset dy="2" input="SourceAlpha"/>
      <feGaussianBlur stdDeviation="0.5" result="blur-15"/>
      <feFlood flood-opacity="0.161"/>
      <feComposite operator="in" in2="blur-15"/>
      <feComposite in="SourceGraphic"/>
    </filter>
    <filter id="Rectangle_21" x="0" y="42" width="9" height="7.5" filterUnits="userSpaceOnUse">
      <feOffset dy="2" input="SourceAlpha"/>
      <feGaussianBlur stdDeviation="0.5" result="blur-16"/>
      <feFlood flood-opacity="0.161"/>
      <feComposite operator="in" in2="blur-16"/>
      <feComposite in="SourceGraphic"/>
    </filter>
    <filter id="Rectangle_22" x="8" y="42" width="19" height="7.5" filterUnits="userSpaceOnUse">
      <feOffset dy="2" input="SourceAlpha"/>
      <feGaussianBlur stdDeviation="0.5" result="blur-17"/>
      <feFlood flood-opacity="0.161"/>
      <feComposite operator="in" in2="blur-17"/>
      <feComposite in="SourceGraphic"/>
    </filter>
    <filter id="Rectangle_23" x="26" y="42" width="12" height="7.5" filterUnits="userSpaceOnUse">
      <feOffset dy="2" input="SourceAlpha"/>
      <feGaussianBlur stdDeviation="0.5" result="blur-18"/>
      <feFlood flood-opacity="0.161"/>
      <feComposite operator="in" in2="blur-18"/>
      <feComposite in="SourceGraphic"/>
    </filter>
  </defs>
  <g id="Group_2" data-name="Group 2" transform="translate(-194.5 30)">
    <g id="Group_1" data-name="Group 1">
      <g transform="matrix(1, 0, 0, 1, 194.5, -30)" filter="url(#Rectangle_5)">
        <g id="Rectangle_5-2" data-name="Rectangle 5" transform="translate(1.5)" fill="#fff" stroke="#d6183e" stroke-width="1">
          <rect width="17" height="4" rx="2" stroke="none"/>
          <rect x="0.5" y="0.5" width="16" height="3" rx="1.5" fill="none"/>
        </g>
      </g>
      <g transform="matrix(1, 0, 0, 1, 194.5, -30)" filter="url(#Rectangle_6)">
        <g id="Rectangle_6-2" data-name="Rectangle 6" transform="translate(20.5)" fill="#fff" stroke="#d6183e" stroke-width="1">
          <rect width="23" height="4" rx="2" stroke="none"/>
          <rect x="0.5" y="0.5" width="22" height="3" rx="1.5" fill="none"/>
        </g>
      </g>
      <g transform="matrix(1, 0, 0, 1, 194.5, -30)" filter="url(#Rectangle_8)">
        <g id="Rectangle_8-2" data-name="Rectangle 8" transform="translate(36.5 6)" fill="#fff" stroke="#d6183e" stroke-width="1">
          <rect width="12" height="4" rx="2" stroke="none"/>
          <rect x="0.5" y="0.5" width="11" height="3" rx="1.5" fill="none"/>
        </g>
      </g>
      <g transform="matrix(1, 0, 0, 1, 194.5, -30)" filter="url(#Rectangle_9)">
        <g id="Rectangle_9-2" data-name="Rectangle 9" transform="translate(1.5 6)" fill="#fff" stroke="#d6183e" stroke-width="1">
          <rect width="24" height="4" rx="2" stroke="none"/>
          <rect x="0.5" y="0.5" width="23" height="3" rx="1.5" fill="none"/>
        </g>
      </g>
      <g transform="matrix(1, 0, 0, 1, 194.5, -30)" filter="url(#Rectangle_10)">
        <g id="Rectangle_10-2" data-name="Rectangle 10" transform="translate(27.5 6)" fill="#fff" stroke="#d6183e" stroke-width="1">
          <rect width="7" height="4" rx="2" stroke="none"/>
          <rect x="0.5" y="0.5" width="6" height="3" rx="1.5" fill="none"/>
        </g>
      </g>
      <g transform="matrix(1, 0, 0, 1, 194.5, -30)" filter="url(#Rectangle_11)">
        <g id="Rectangle_11-2" data-name="Rectangle 11" transform="translate(1.5 12)" fill="#fff" stroke="#d6183e" stroke-width="1">
          <rect width="12" height="4" rx="2" stroke="none"/>
          <rect x="0.5" y="0.5" width="11" height="3" rx="1.5" fill="none"/>
        </g>
      </g>
      <g transform="matrix(1, 0, 0, 1, 194.5, -30)" filter="url(#Rectangle_12)">
        <g id="Rectangle_12-2" data-name="Rectangle 12" transform="translate(15.5 12)" fill="#fff" stroke="#d6183e" stroke-width="1">
          <rect width="11" height="4" rx="2" stroke="none"/>
          <rect x="0.5" y="0.5" width="10" height="3" rx="1.5" fill="none"/>
        </g>
      </g>
      <g transform="matrix(1, 0, 0, 1, 194.5, -30)" filter="url(#Rectangle_13)">
        <g id="Rectangle_13-2" data-name="Rectangle 13" transform="translate(10.5 18)" fill="#fff" stroke="#d6183e" stroke-width="1">
          <rect width="15" height="4" rx="2" stroke="none"/>
          <rect x="0.5" y="0.5" width="14" height="3" rx="1.5" fill="none"/>
        </g>
      </g>
      <g transform="matrix(1, 0, 0, 1, 194.5, -30)" filter="url(#Rectangle_14)">
        <g id="Rectangle_14-2" data-name="Rectangle 14" transform="translate(1.5 18)" fill="#fff" stroke="#d6183e" stroke-width="1">
          <rect width="7" height="4" rx="2" stroke="none"/>
          <rect x="0.5" y="0.5" width="6" height="3" rx="1.5" fill="none"/>
        </g>
      </g>
      <g transform="matrix(1, 0, 0, 1, 194.5, -30)" filter="url(#Rectangle_15)">
        <g id="Rectangle_15-2" data-name="Rectangle 15" transform="translate(18.5 24)" fill="#fff" stroke="#d6183e" stroke-width="1">
          <rect width="15" height="4" rx="2" stroke="none"/>
          <rect x="0.5" y="0.5" width="14" height="3" rx="1.5" fill="none"/>
        </g>
      </g>
      <g transform="matrix(1, 0, 0, 1, 194.5, -30)" filter="url(#Rectangle_16)">
        <g id="Rectangle_16-2" data-name="Rectangle 16" transform="translate(1.5 24)" fill="#fff" stroke="#d6183e" stroke-width="1">
          <rect width="15" height="4" rx="2" stroke="none"/>
          <rect x="0.5" y="0.5" width="14" height="3" rx="1.5" fill="none"/>
        </g>
      </g>
      <g transform="matrix(1, 0, 0, 1, 194.5, -30)" filter="url(#Rectangle_17)">
        <g id="Rectangle_17-2" data-name="Rectangle 17" transform="translate(1.5 30)" fill="#fff" stroke="#d6183e" stroke-width="1">
          <rect width="21" height="4" rx="2" stroke="none"/>
          <rect x="0.5" y="0.5" width="20" height="3" rx="1.5" fill="none"/>
        </g>
      </g>
      <g transform="matrix(1, 0, 0, 1, 194.5, -30)" filter="url(#Rectangle_18)">
        <g id="Rectangle_18-2" data-name="Rectangle 18" transform="translate(1.5 36)" fill="#fff" stroke="#d6183e" stroke-width="1">
          <rect width="17" height="4" rx="2" stroke="none"/>
          <rect x="0.5" y="0.5" width="16" height="3" rx="1.5" fill="none"/>
        </g>
      </g>
      <g transform="matrix(1, 0, 0, 1, 194.5, -30)" filter="url(#Rectangle_19)">
        <g id="Rectangle_19-2" data-name="Rectangle 19" transform="translate(19.5 36)" fill="#fff" stroke="#d6183e" stroke-width="1">
          <rect width="21" height="4" rx="2" stroke="none"/>
          <rect x="0.5" y="0.5" width="20" height="3" rx="1.5" fill="none"/>
        </g>
      </g>
      <g transform="matrix(1, 0, 0, 1, 194.5, -30)" filter="url(#Rectangle_20)">
        <g id="Rectangle_20-2" data-name="Rectangle 20" transform="translate(24.5 30)" fill="#fff" stroke="#d6183e" stroke-width="1">
          <rect width="11" height="4" rx="2" stroke="none"/>
          <rect x="0.5" y="0.5" width="10" height="3" rx="1.5" fill="none"/>
        </g>
      </g>
      <g transform="matrix(1, 0, 0, 1, 194.5, -30)" filter="url(#Rectangle_21)">
        <g id="Rectangle_21-2" data-name="Rectangle 21" transform="translate(1.5 42)" fill="#fff" stroke="#f03" stroke-width="1">
          <rect width="6" height="4" rx="2" stroke="none"/>
          <rect x="0.5" y="0.5" width="5" height="3" rx="1.5" fill="none"/>
        </g>
      </g>
      <g transform="matrix(1, 0, 0, 1, 194.5, -30)" filter="url(#Rectangle_22)">
        <g id="Rectangle_22-2" data-name="Rectangle 22" transform="translate(9.5 42)" fill="#fff" stroke="#d6183e" stroke-width="1">
          <rect width="16" height="4" rx="2" stroke="none"/>
          <rect x="0.5" y="0.5" width="15" height="3" rx="1.5" fill="none"/>
        </g>
      </g>
      <g transform="matrix(1, 0, 0, 1, 194.5, -30)" filter="url(#Rectangle_23)">
        <g id="Rectangle_23-2" data-name="Rectangle 23" transform="translate(27.5 42)" fill="#fff" stroke="#d6183e" stroke-width="1">
          <rect width="9" height="4" rx="2" stroke="none"/>
          <rect x="0.5" y="0.5" width="8" height="3" rx="1.5" fill="none"/>
        </g>
      </g>
      <text id="KACPER_ADAMSKI" data-name="KACPER 
ADAMSKI" transform="translate(250 -12)" fill="#fff" font-size="16" font-family="Montserrat-SemiBold, Montserrat" font-weight="600"><tspan x="0" y="0">KACPER </tspan><tspan x="0" y="20">ADAMSKI</tspan></text>
    </g>
  </g>
</svg>
